<svg viewBox="0 0 640 560" xmlns="http://www.w3.org/2000/svg">
<defs><linearGradient id="hw" x1="0" y1="0" x2="640" y2="560" gradientUnits="userSpaceOnUse">
<stop offset="0" stop-color="#1F2126"/><stop offset="1" stop-color="#15161A"/></linearGradient></defs>
<rect width="640" height="560" fill="url(#hw)" opacity="0"/>
<circle cx="580" cy="70" r="150" fill="#C6A15B" opacity="0.06"/>

<rect x="60" y="60" width="460" height="300" rx="18" fill="#2B2E34" stroke="#C6A15B" stroke-width="2" opacity="1"/>
<circle cx="96" cy="94" r="7" fill="#C6A15B"/>
<circle cx="120" cy="94" r="7" fill="#E4C17E" opacity="0.6"/>
<circle cx="144" cy="94" r="7" fill="#8C6D3F" opacity="0.6"/>
<line x1="60" y1="118" x2="520" y2="118" stroke="#C6A15B" stroke-opacity="0.25" stroke-width="1.5"/>
<rect x="90" y="150" width="140" height="70" rx="8" fill="none" stroke="#E4C17E" stroke-width="2.5"/>
<rect x="250" y="150" width="140" height="70" rx="8" fill="none" stroke="#C6A15B" stroke-width="2.5" opacity="0.75"/>
<polyline points="100,290 150,260 190,300 240,240 290,270 340,230" fill="none" stroke="#E4C17E" stroke-width="3" stroke-linecap="round" stroke-linejoin="round"/>
<circle cx="340" cy="230" r="6" fill="#E4C17E"/>
<rect x="320" y="320" width="260" height="170" rx="16" fill="#15161A" stroke="#E4C17E" stroke-width="2" opacity="1"/>
<circle cx="450" cy="405" r="55" fill="none" stroke="#C6A15B" stroke-width="3"/>
<path d="M 450,375 L 450,405 L 472,420" fill="none" stroke="#E4C17E" stroke-width="3" stroke-linecap="round" stroke-linejoin="round"/>
<rect x="30" y="380" width="250" height="130" rx="16" fill="#2B2E34" stroke="#C6A15B" stroke-width="2" opacity="0.9"/>
<line x1="55" y1="415" x2="230" y2="415" stroke="#E4C17E" stroke-width="3" stroke-linecap="round"/>
<line x1="55" y1="440" x2="190" y2="440" stroke="#C6A15B" stroke-width="3" stroke-linecap="round" opacity="0.7"/>
<line x1="55" y1="465" x2="210" y2="465" stroke="#C6A15B" stroke-width="3" stroke-linecap="round" opacity="0.5"/>

</svg>