<svg viewBox="0 0 1440 500" xmlns="http://www.w3.org/2000/svg">
<defs>
  <linearGradient id="og" x1="0" y1="0" x2="0" y2="500" gradientUnits="userSpaceOnUse">
    <stop offset="0" stop-color="#1F2126"/>
    <stop offset="1" stop-color="#15161A"/>
  </linearGradient>
</defs>
<rect width="1440" height="500" fill="url(#og)"/>
<circle cx="1250" cy="90" r="46" fill="#E4C17E" opacity="0.7"/>
<rect x="40" y="220" width="90" height="260" fill="#2B2E34" stroke="#C6A15B" stroke-width="1.5" opacity="1"/><rect x="46" y="228" width="12" height="14" fill="#C6A15B" opacity="0.35"/><rect x="68" y="228" width="12" height="14" fill="#C6A15B" opacity="0.35"/><rect x="90" y="228" width="12" height="14" fill="#C6A15B" opacity="0.35"/><rect x="112" y="228" width="12" height="14" fill="#C6A15B" opacity="0.35"/><rect x="46" y="254" width="12" height="14" fill="#C6A15B" opacity="0.35"/><rect x="68" y="254" width="12" height="14" fill="#C6A15B" opacity="0.35"/><rect x="90" y="254" width="12" height="14" fill="#C6A15B" opacity="0.35"/><rect x="112" y="254" width="12" height="14" fill="#C6A15B" opacity="0.35"/><rect x="46" y="280" width="12" height="14" fill="#C6A15B" opacity="0.35"/><rect x="68" y="280" width="12" height="14" fill="#C6A15B" opacity="0.35"/><rect x="90" y="280" width="12" height="14" fill="#C6A15B" opacity="0.35"/><rect x="112" y="280" width="12" height="14" fill="#C6A15B" opacity="0.35"/><rect x="46" y="306" width="12" height="14" fill="#C6A15B" opacity="0.35"/><rect x="68" y="306" width="12" height="14" fill="#C6A15B" opacity="0.35"/><rect x="90" y="306" width="12" height="14" fill="#C6A15B" opacity="0.35"/><rect x="112" y="306" width="12" height="14" fill="#C6A15B" opacity="0.35"/><rect x="46" y="332" width="12" height="14" fill="#C6A15B" opacity="0.35"/><rect x="68" y="332" width="12" height="14" fill="#C6A15B" opacity="0.35"/><rect x="90" y="332" width="12" height="14" fill="#C6A15B" opacity="0.35"/><rect x="112" y="332" width="12" height="14" fill="#C6A15B" opacity="0.35"/><rect x="46" y="358" width="12" height="14" fill="#C6A15B" opacity="0.35"/><rect x="68" y="358" width="12" height="14" fill="#C6A15B" opacity="0.35"/><rect x="90" y="358" width="12" height="14" fill="#C6A15B" opacity="0.35"/><rect x="112" y="358" width="12" height="14" fill="#C6A15B" opacity="0.35"/><rect x="46" y="384" width="12" height="14" fill="#C6A15B" opacity="0.35"/><rect x="68" y="384" width="12" height="14" fill="#C6A15B" opacity="0.35"/><rect x="90" y="384" width="12" height="14" fill="#C6A15B" opacity="0.35"/><rect x="112" y="384" width="12" height="14" fill="#C6A15B" opacity="0.35"/><rect x="46" y="410" width="12" height="14" fill="#C6A15B" opacity="0.35"/><rect x="68" y="410" width="12" height="14" fill="#C6A15B" opacity="0.35"/><rect x="90" y="410" width="12" height="14" fill="#C6A15B" opacity="0.35"/><rect x="112" y="410" width="12" height="14" fill="#C6A15B" opacity="0.35"/><rect x="46" y="436" width="12" height="14" fill="#C6A15B" opacity="0.35"/><rect x="68" y="436" width="12" height="14" fill="#C6A15B" opacity="0.35"/><rect x="90" y="436" width="12" height="14" fill="#C6A15B" opacity="0.35"/><rect x="112" y="436" width="12" height="14" fill="#C6A15B" opacity="0.35"/><rect x="46" y="462" width="12" height="14" fill="#C6A15B" opacity="0.35"/><rect x="68" y="462" width="12" height="14" fill="#C6A15B" opacity="0.35"/><rect x="90" y="462" width="12" height="14" fill="#C6A15B" opacity="0.35"/><rect x="112" y="462" width="12" height="14" fill="#C6A15B" opacity="0.35"/><rect x="150" y="140" width="130" height="340" fill="#2B2E34" stroke="#E4C17E" stroke-width="1.5" opacity="1"/><rect x="156" y="148" width="12" height="14" fill="#C6A15B" opacity="0.35"/><rect x="178" y="148" width="12" height="14" fill="#C6A15B" opacity="0.35"/><rect x="200" y="148" width="12" height="14" fill="#C6A15B" opacity="0.35"/><rect x="222" y="148" width="12" height="14" fill="#C6A15B" opacity="0.35"/><rect x="244" y="148" width="12" height="14" fill="#C6A15B" opacity="0.35"/><rect x="156" y="174" width="12" height="14" fill="#C6A15B" opacity="0.35"/><rect x="178" y="174" width="12" height="14" fill="#C6A15B" opacity="0.35"/><rect x="200" y="174" width="12" height="14" fill="#C6A15B" opacity="0.35"/><rect x="222" y="174" width="12" height="14" fill="#C6A15B" opacity="0.35"/><rect x="244" y="174" width="12" height="14" fill="#C6A15B" opacity="0.35"/><rect x="156" y="200" width="12" height="14" fill="#C6A15B" opacity="0.35"/><rect x="178" y="200" width="12" height="14" fill="#C6A15B" opacity="0.35"/><rect x="200" y="200" width="12" height="14" fill="#C6A15B" opacity="0.35"/><rect x="222" y="200" width="12" height="14" fill="#C6A15B" opacity="0.35"/><rect x="244" y="200" width="12" height="14" fill="#C6A15B" opacity="0.35"/><rect x="156" y="226" width="12" height="14" fill="#C6A15B" opacity="0.35"/><rect x="178" y="226" width="12" height="14" fill="#C6A15B" opacity="0.35"/><rect x="200" y="226" width="12" height="14" fill="#C6A15B" opacity="0.35"/><rect x="222" y="226" width="12" height="14" fill="#C6A15B" opacity="0.35"/><rect x="244" y="226" width="12" height="14" fill="#C6A15B" opacity="0.35"/><rect x="156" y="252" width="12" height="14" fill="#C6A15B" opacity="0.35"/><rect x="178" y="252" width="12" height="14" fill="#C6A15B" opacity="0.35"/><rect x="200" y="252" width="12" height="14" fill="#C6A15B" opacity="0.35"/><rect x="222" y="252" width="12" height="14" fill="#C6A15B" opacity="0.35"/><rect x="244" y="252" width="12" height="14" fill="#C6A15B" opacity="0.35"/><rect x="156" y="278" width="12" height="14" fill="#C6A15B" opacity="0.35"/><rect x="178" y="278" width="12" height="14" fill="#C6A15B" opacity="0.35"/><rect x="200" y="278" width="12" height="14" fill="#C6A15B" opacity="0.35"/><rect x="222" y="278" width="12" height="14" fill="#C6A15B" opacity="0.35"/><rect x="244" y="278" width="12" height="14" fill="#C6A15B" opacity="0.35"/><rect x="156" y="304" width="12" height="14" fill="#C6A15B" opacity="0.35"/><rect x="178" y="304" width="12" height="14" fill="#C6A15B" opacity="0.35"/><rect x="200" y="304" width="12" height="14" fill="#C6A15B" opacity="0.35"/><rect x="222" y="304" width="12" height="14" fill="#C6A15B" opacity="0.35"/><rect x="244" y="304" width="12" height="14" fill="#C6A15B" opacity="0.35"/><rect x="156" y="330" width="12" height="14" fill="#C6A15B" opacity="0.35"/><rect x="178" y="330" width="12" height="14" fill="#C6A15B" opacity="0.35"/><rect x="200" y="330" width="12" height="14" fill="#C6A15B" opacity="0.35"/><rect x="222" y="330" width="12" height="14" fill="#C6A15B" opacity="0.35"/><rect x="244" y="330" width="12" height="14" fill="#C6A15B" opacity="0.35"/><rect x="156" y="356" width="12" height="14" fill="#C6A15B" opacity="0.35"/><rect x="178" y="356" width="12" height="14" fill="#C6A15B" opacity="0.35"/><rect x="200" y="356" width="12" height="14" fill="#C6A15B" opacity="0.35"/><rect x="222" y="356" width="12" height="14" fill="#C6A15B" opacity="0.35"/><rect x="244" y="356" width="12" height="14" fill="#C6A15B" opacity="0.35"/><rect x="156" y="382" width="12" height="14" fill="#C6A15B" opacity="0.35"/><rect x="178" y="382" width="12" height="14" fill="#C6A15B" opacity="0.35"/><rect x="200" y="382" width="12" height="14" fill="#C6A15B" opacity="0.35"/><rect x="222" y="382" width="12" height="14" fill="#C6A15B" opacity="0.35"/><rect x="244" y="382" width="12" height="14" fill="#C6A15B" opacity="0.35"/><rect x="156" y="408" width="12" height="14" fill="#C6A15B" opacity="0.35"/><rect x="178" y="408" width="12" height="14" fill="#C6A15B" opacity="0.35"/><rect x="200" y="408" width="12" height="14" fill="#C6A15B" opacity="0.35"/><rect x="222" y="408" width="12" height="14" fill="#C6A15B" opacity="0.35"/><rect x="244" y="408" width="12" height="14" fill="#C6A15B" opacity="0.35"/><rect x="156" y="434" width="12" height="14" fill="#C6A15B" opacity="0.35"/><rect x="178" y="434" width="12" height="14" fill="#C6A15B" opacity="0.35"/><rect x="200" y="434" width="12" height="14" fill="#C6A15B" opacity="0.35"/><rect x="222" y="434" width="12" height="14" fill="#C6A15B" opacity="0.35"/><rect x="244" y="434" width="12" height="14" fill="#C6A15B" opacity="0.35"/><rect x="156" y="460" width="12" height="14" fill="#C6A15B" opacity="0.35"/><rect x="178" y="460" width="12" height="14" fill="#C6A15B" opacity="0.35"/><rect x="200" y="460" width="12" height="14" fill="#C6A15B" opacity="0.35"/><rect x="222" y="460" width="12" height="14" fill="#C6A15B" opacity="0.35"/><rect x="244" y="460" width="12" height="14" fill="#C6A15B" opacity="0.35"/><rect x="300" y="260" width="100" height="220" fill="#2B2E34" stroke="#C6A15B" stroke-width="1.5" opacity="1"/><rect x="306" y="268" width="12" height="14" fill="#C6A15B" opacity="0.35"/><rect x="328" y="268" width="12" height="14" fill="#C6A15B" opacity="0.35"/><rect x="350" y="268" width="12" height="14" fill="#C6A15B" opacity="0.35"/><rect x="372" y="268" width="12" height="14" fill="#C6A15B" opacity="0.35"/><rect x="306" y="294" width="12" height="14" fill="#C6A15B" opacity="0.35"/><rect x="328" y="294" width="12" height="14" fill="#C6A15B" opacity="0.35"/><rect x="350" y="294" width="12" height="14" fill="#C6A15B" opacity="0.35"/><rect x="372" y="294" width="12" height="14" fill="#C6A15B" opacity="0.35"/><rect x="306" y="320" width="12" height="14" fill="#C6A15B" opacity="0.35"/><rect x="328" y="320" width="12" height="14" fill="#C6A15B" opacity="0.35"/><rect x="350" y="320" width="12" height="14" fill="#C6A15B" opacity="0.35"/><rect x="372" y="320" width="12" height="14" fill="#C6A15B" opacity="0.35"/><rect x="306" y="346" width="12" height="14" fill="#C6A15B" opacity="0.35"/><rect x="328" y="346" width="12" height="14" fill="#C6A15B" opacity="0.35"/><rect x="350" y="346" width="12" height="14" fill="#C6A15B" opacity="0.35"/><rect x="372" y="346" width="12" height="14" fill="#C6A15B" opacity="0.35"/><rect x="306" y="372" width="12" height="14" fill="#C6A15B" opacity="0.35"/><rect x="328" y="372" width="12" height="14" fill="#C6A15B" opacity="0.35"/><rect x="350" y="372" width="12" height="14" fill="#C6A15B" opacity="0.35"/><rect x="372" y="372" width="12" height="14" fill="#C6A15B" opacity="0.35"/><rect x="306" y="398" width="12" height="14" fill="#C6A15B" opacity="0.35"/><rect x="328" y="398" width="12" height="14" fill="#C6A15B" opacity="0.35"/><rect x="350" y="398" width="12" height="14" fill="#C6A15B" opacity="0.35"/><rect x="372" y="398" width="12" height="14" fill="#C6A15B" opacity="0.35"/><rect x="306" y="424" width="12" height="14" fill="#C6A15B" opacity="0.35"/><rect x="328" y="424" width="12" height="14" fill="#C6A15B" opacity="0.35"/><rect x="350" y="424" width="12" height="14" fill="#C6A15B" opacity="0.35"/><rect x="372" y="424" width="12" height="14" fill="#C6A15B" opacity="0.35"/><rect x="306" y="450" width="12" height="14" fill="#C6A15B" opacity="0.35"/><rect x="328" y="450" width="12" height="14" fill="#C6A15B" opacity="0.35"/><rect x="350" y="450" width="12" height="14" fill="#C6A15B" opacity="0.35"/><rect x="372" y="450" width="12" height="14" fill="#C6A15B" opacity="0.35"/><rect x="420" y="100" width="150" height="380" fill="#2B2E34" stroke="#E4C17E" stroke-width="1.5" opacity="1"/><rect x="426" y="108" width="12" height="14" fill="#C6A15B" opacity="0.35"/><rect x="448" y="108" width="12" height="14" fill="#C6A15B" opacity="0.35"/><rect x="470" y="108" width="12" height="14" fill="#C6A15B" opacity="0.35"/><rect x="492" y="108" width="12" height="14" fill="#C6A15B" opacity="0.35"/><rect x="514" y="108" width="12" height="14" fill="#C6A15B" opacity="0.35"/><rect x="536" y="108" width="12" height="14" fill="#C6A15B" opacity="0.35"/><rect x="426" y="134" width="12" height="14" fill="#C6A15B" opacity="0.35"/><rect x="448" y="134" width="12" height="14" fill="#C6A15B" opacity="0.35"/><rect x="470" y="134" width="12" height="14" fill="#C6A15B" opacity="0.35"/><rect x="492" y="134" width="12" height="14" fill="#C6A15B" opacity="0.35"/><rect x="514" y="134" width="12" height="14" fill="#C6A15B" opacity="0.35"/><rect x="536" y="134" width="12" height="14" fill="#C6A15B" opacity="0.35"/><rect x="426" y="160" width="12" height="14" fill="#C6A15B" opacity="0.35"/><rect x="448" y="160" width="12" height="14" fill="#C6A15B" opacity="0.35"/><rect x="470" y="160" width="12" height="14" fill="#C6A15B" opacity="0.35"/><rect x="492" y="160" width="12" height="14" fill="#C6A15B" opacity="0.35"/><rect x="514" y="160" width="12" height="14" fill="#C6A15B" opacity="0.35"/><rect x="536" y="160" width="12" height="14" fill="#C6A15B" opacity="0.35"/><rect x="426" y="186" width="12" height="14" fill="#C6A15B" opacity="0.35"/><rect x="448" y="186" width="12" height="14" fill="#C6A15B" opacity="0.35"/><rect x="470" y="186" width="12" height="14" fill="#C6A15B" opacity="0.35"/><rect x="492" y="186" width="12" height="14" fill="#C6A15B" opacity="0.35"/><rect x="514" y="186" width="12" height="14" fill="#C6A15B" opacity="0.35"/><rect x="536" y="186" width="12" height="14" fill="#C6A15B" opacity="0.35"/><rect x="426" y="212" width="12" height="14" fill="#C6A15B" opacity="0.35"/><rect x="448" y="212" width="12" height="14" fill="#C6A15B" opacity="0.35"/><rect x="470" y="212" width="12" height="14" fill="#C6A15B" opacity="0.35"/><rect x="492" y="212" width="12" height="14" fill="#C6A15B" opacity="0.35"/><rect x="514" y="212" width="12" height="14" fill="#C6A15B" opacity="0.35"/><rect x="536" y="212" width="12" height="14" fill="#C6A15B" opacity="0.35"/><rect x="426" y="238" width="12" height="14" fill="#C6A15B" opacity="0.35"/><rect x="448" y="238" width="12" height="14" fill="#C6A15B" opacity="0.35"/><rect x="470" y="238" width="12" height="14" fill="#C6A15B" opacity="0.35"/><rect x="492" y="238" width="12" height="14" fill="#C6A15B" opacity="0.35"/><rect x="514" y="238" width="12" height="14" fill="#C6A15B" opacity="0.35"/><rect x="536" y="238" width="12" height="14" fill="#C6A15B" opacity="0.35"/><rect x="426" y="264" width="12" height="14" fill="#C6A15B" opacity="0.35"/><rect x="448" y="264" width="12" height="14" fill="#C6A15B" opacity="0.35"/><rect x="470" y="264" width="12" height="14" fill="#C6A15B" opacity="0.35"/><rect x="492" y="264" width="12" height="14" fill="#C6A15B" opacity="0.35"/><rect x="514" y="264" width="12" height="14" fill="#C6A15B" opacity="0.35"/><rect x="536" y="264" width="12" height="14" fill="#C6A15B" opacity="0.35"/><rect x="426" y="290" width="12" height="14" fill="#C6A15B" opacity="0.35"/><rect x="448" y="290" width="12" height="14" fill="#C6A15B" opacity="0.35"/><rect x="470" y="290" width="12" height="14" fill="#C6A15B" opacity="0.35"/><rect x="492" y="290" width="12" height="14" fill="#C6A15B" opacity="0.35"/><rect x="514" y="290" width="12" height="14" fill="#C6A15B" opacity="0.35"/><rect x="536" y="290" width="12" height="14" fill="#C6A15B" opacity="0.35"/><rect x="426" y="316" width="12" height="14" fill="#C6A15B" opacity="0.35"/><rect x="448" y="316" width="12" height="14" fill="#C6A15B" opacity="0.35"/><rect x="470" y="316" width="12" height="14" fill="#C6A15B" opacity="0.35"/><rect x="492" y="316" width="12" height="14" fill="#C6A15B" opacity="0.35"/><rect x="514" y="316" width="12" height="14" fill="#C6A15B" opacity="0.35"/><rect x="536" y="316" width="12" height="14" fill="#C6A15B" opacity="0.35"/><rect x="426" y="342" width="12" height="14" fill="#C6A15B" opacity="0.35"/><rect x="448" y="342" width="12" height="14" fill="#C6A15B" opacity="0.35"/><rect x="470" y="342" width="12" height="14" fill="#C6A15B" opacity="0.35"/><rect x="492" y="342" width="12" height="14" fill="#C6A15B" opacity="0.35"/><rect x="514" y="342" width="12" height="14" fill="#C6A15B" opacity="0.35"/><rect x="536" y="342" width="12" height="14" fill="#C6A15B" opacity="0.35"/><rect x="426" y="368" width="12" height="14" fill="#C6A15B" opacity="0.35"/><rect x="448" y="368" width="12" height="14" fill="#C6A15B" opacity="0.35"/><rect x="470" y="368" width="12" height="14" fill="#C6A15B" opacity="0.35"/><rect x="492" y="368" width="12" height="14" fill="#C6A15B" opacity="0.35"/><rect x="514" y="368" width="12" height="14" fill="#C6A15B" opacity="0.35"/><rect x="536" y="368" width="12" height="14" fill="#C6A15B" opacity="0.35"/><rect x="426" y="394" width="12" height="14" fill="#C6A15B" opacity="0.35"/><rect x="448" y="394" width="12" height="14" fill="#C6A15B" opacity="0.35"/><rect x="470" y="394" width="12" height="14" fill="#C6A15B" opacity="0.35"/><rect x="492" y="394" width="12" height="14" fill="#C6A15B" opacity="0.35"/><rect x="514" y="394" width="12" height="14" fill="#C6A15B" opacity="0.35"/><rect x="536" y="394" width="12" height="14" fill="#C6A15B" opacity="0.35"/><rect x="426" y="420" width="12" height="14" fill="#C6A15B" opacity="0.35"/><rect x="448" y="420" width="12" height="14" fill="#C6A15B" opacity="0.35"/><rect x="470" y="420" width="12" height="14" fill="#C6A15B" opacity="0.35"/><rect x="492" y="420" width="12" height="14" fill="#C6A15B" opacity="0.35"/><rect x="514" y="420" width="12" height="14" fill="#C6A15B" opacity="0.35"/><rect x="536" y="420" width="12" height="14" fill="#C6A15B" opacity="0.35"/><rect x="426" y="446" width="12" height="14" fill="#C6A15B" opacity="0.35"/><rect x="448" y="446" width="12" height="14" fill="#C6A15B" opacity="0.35"/><rect x="470" y="446" width="12" height="14" fill="#C6A15B" opacity="0.35"/><rect x="492" y="446" width="12" height="14" fill="#C6A15B" opacity="0.35"/><rect x="514" y="446" width="12" height="14" fill="#C6A15B" opacity="0.35"/><rect x="536" y="446" width="12" height="14" fill="#C6A15B" opacity="0.35"/><rect x="590" y="280" width="110" height="200" fill="#2B2E34" stroke="#C6A15B" stroke-width="1.5" opacity="1"/><rect x="596" y="288" width="12" height="14" fill="#C6A15B" opacity="0.35"/><rect x="618" y="288" width="12" height="14" fill="#C6A15B" opacity="0.35"/><rect x="640" y="288" width="12" height="14" fill="#C6A15B" opacity="0.35"/><rect x="662" y="288" width="12" height="14" fill="#C6A15B" opacity="0.35"/><rect x="684" y="288" width="12" height="14" fill="#C6A15B" opacity="0.35"/><rect x="596" y="314" width="12" height="14" fill="#C6A15B" opacity="0.35"/><rect x="618" y="314" width="12" height="14" fill="#C6A15B" opacity="0.35"/><rect x="640" y="314" width="12" height="14" fill="#C6A15B" opacity="0.35"/><rect x="662" y="314" width="12" height="14" fill="#C6A15B" opacity="0.35"/><rect x="684" y="314" width="12" height="14" fill="#C6A15B" opacity="0.35"/><rect x="596" y="340" width="12" height="14" fill="#C6A15B" opacity="0.35"/><rect x="618" y="340" width="12" height="14" fill="#C6A15B" opacity="0.35"/><rect x="640" y="340" width="12" height="14" fill="#C6A15B" opacity="0.35"/><rect x="662" y="340" width="12" height="14" fill="#C6A15B" opacity="0.35"/><rect x="684" y="340" width="12" height="14" fill="#C6A15B" opacity="0.35"/><rect x="596" y="366" width="12" height="14" fill="#C6A15B" opacity="0.35"/><rect x="618" y="366" width="12" height="14" fill="#C6A15B" opacity="0.35"/><rect x="640" y="366" width="12" height="14" fill="#C6A15B" opacity="0.35"/><rect x="662" y="366" width="12" height="14" fill="#C6A15B" opacity="0.35"/><rect x="684" y="366" width="12" height="14" fill="#C6A15B" opacity="0.35"/><rect x="596" y="392" width="12" height="14" fill="#C6A15B" opacity="0.35"/><rect x="618" y="392" width="12" height="14" fill="#C6A15B" opacity="0.35"/><rect x="640" y="392" width="12" height="14" fill="#C6A15B" opacity="0.35"/><rect x="662" y="392" width="12" height="14" fill="#C6A15B" opacity="0.35"/><rect x="684" y="392" width="12" height="14" fill="#C6A15B" opacity="0.35"/><rect x="596" y="418" width="12" height="14" fill="#C6A15B" opacity="0.35"/><rect x="618" y="418" width="12" height="14" fill="#C6A15B" opacity="0.35"/><rect x="640" y="418" width="12" height="14" fill="#C6A15B" opacity="0.35"/><rect x="662" y="418" width="12" height="14" fill="#C6A15B" opacity="0.35"/><rect x="684" y="418" width="12" height="14" fill="#C6A15B" opacity="0.35"/><rect x="596" y="444" width="12" height="14" fill="#C6A15B" opacity="0.35"/><rect x="618" y="444" width="12" height="14" fill="#C6A15B" opacity="0.35"/><rect x="640" y="444" width="12" height="14" fill="#C6A15B" opacity="0.35"/><rect x="662" y="444" width="12" height="14" fill="#C6A15B" opacity="0.35"/><rect x="684" y="444" width="12" height="14" fill="#C6A15B" opacity="0.35"/><rect x="720" y="180" width="140" height="300" fill="#2B2E34" stroke="#C6A15B" stroke-width="1.5" opacity="1"/><rect x="726" y="188" width="12" height="14" fill="#C6A15B" opacity="0.35"/><rect x="748" y="188" width="12" height="14" fill="#C6A15B" opacity="0.35"/><rect x="770" y="188" width="12" height="14" fill="#C6A15B" opacity="0.35"/><rect x="792" y="188" width="12" height="14" fill="#C6A15B" opacity="0.35"/><rect x="814" y="188" width="12" height="14" fill="#C6A15B" opacity="0.35"/><rect x="836" y="188" width="12" height="14" fill="#C6A15B" opacity="0.35"/><rect x="726" y="214" width="12" height="14" fill="#C6A15B" opacity="0.35"/><rect x="748" y="214" width="12" height="14" fill="#C6A15B" opacity="0.35"/><rect x="770" y="214" width="12" height="14" fill="#C6A15B" opacity="0.35"/><rect x="792" y="214" width="12" height="14" fill="#C6A15B" opacity="0.35"/><rect x="814" y="214" width="12" height="14" fill="#C6A15B" opacity="0.35"/><rect x="836" y="214" width="12" height="14" fill="#C6A15B" opacity="0.35"/><rect x="726" y="240" width="12" height="14" fill="#C6A15B" opacity="0.35"/><rect x="748" y="240" width="12" height="14" fill="#C6A15B" opacity="0.35"/><rect x="770" y="240" width="12" height="14" fill="#C6A15B" opacity="0.35"/><rect x="792" y="240" width="12" height="14" fill="#C6A15B" opacity="0.35"/><rect x="814" y="240" width="12" height="14" fill="#C6A15B" opacity="0.35"/><rect x="836" y="240" width="12" height="14" fill="#C6A15B" opacity="0.35"/><rect x="726" y="266" width="12" height="14" fill="#C6A15B" opacity="0.35"/><rect x="748" y="266" width="12" height="14" fill="#C6A15B" opacity="0.35"/><rect x="770" y="266" width="12" height="14" fill="#C6A15B" opacity="0.35"/><rect x="792" y="266" width="12" height="14" fill="#C6A15B" opacity="0.35"/><rect x="814" y="266" width="12" height="14" fill="#C6A15B" opacity="0.35"/><rect x="836" y="266" width="12" height="14" fill="#C6A15B" opacity="0.35"/><rect x="726" y="292" width="12" height="14" fill="#C6A15B" opacity="0.35"/><rect x="748" y="292" width="12" height="14" fill="#C6A15B" opacity="0.35"/><rect x="770" y="292" width="12" height="14" fill="#C6A15B" opacity="0.35"/><rect x="792" y="292" width="12" height="14" fill="#C6A15B" opacity="0.35"/><rect x="814" y="292" width="12" height="14" fill="#C6A15B" opacity="0.35"/><rect x="836" y="292" width="12" height="14" fill="#C6A15B" opacity="0.35"/><rect x="726" y="318" width="12" height="14" fill="#C6A15B" opacity="0.35"/><rect x="748" y="318" width="12" height="14" fill="#C6A15B" opacity="0.35"/><rect x="770" y="318" width="12" height="14" fill="#C6A15B" opacity="0.35"/><rect x="792" y="318" width="12" height="14" fill="#C6A15B" opacity="0.35"/><rect x="814" y="318" width="12" height="14" fill="#C6A15B" opacity="0.35"/><rect x="836" y="318" width="12" height="14" fill="#C6A15B" opacity="0.35"/><rect x="726" y="344" width="12" height="14" fill="#C6A15B" opacity="0.35"/><rect x="748" y="344" width="12" height="14" fill="#C6A15B" opacity="0.35"/><rect x="770" y="344" width="12" height="14" fill="#C6A15B" opacity="0.35"/><rect x="792" y="344" width="12" height="14" fill="#C6A15B" opacity="0.35"/><rect x="814" y="344" width="12" height="14" fill="#C6A15B" opacity="0.35"/><rect x="836" y="344" width="12" height="14" fill="#C6A15B" opacity="0.35"/><rect x="726" y="370" width="12" height="14" fill="#C6A15B" opacity="0.35"/><rect x="748" y="370" width="12" height="14" fill="#C6A15B" opacity="0.35"/><rect x="770" y="370" width="12" height="14" fill="#C6A15B" opacity="0.35"/><rect x="792" y="370" width="12" height="14" fill="#C6A15B" opacity="0.35"/><rect x="814" y="370" width="12" height="14" fill="#C6A15B" opacity="0.35"/><rect x="836" y="370" width="12" height="14" fill="#C6A15B" opacity="0.35"/><rect x="726" y="396" width="12" height="14" fill="#C6A15B" opacity="0.35"/><rect x="748" y="396" width="12" height="14" fill="#C6A15B" opacity="0.35"/><rect x="770" y="396" width="12" height="14" fill="#C6A15B" opacity="0.35"/><rect x="792" y="396" width="12" height="14" fill="#C6A15B" opacity="0.35"/><rect x="814" y="396" width="12" height="14" fill="#C6A15B" opacity="0.35"/><rect x="836" y="396" width="12" height="14" fill="#C6A15B" opacity="0.35"/><rect x="726" y="422" width="12" height="14" fill="#C6A15B" opacity="0.35"/><rect x="748" y="422" width="12" height="14" fill="#C6A15B" opacity="0.35"/><rect x="770" y="422" width="12" height="14" fill="#C6A15B" opacity="0.35"/><rect x="792" y="422" width="12" height="14" fill="#C6A15B" opacity="0.35"/><rect x="814" y="422" width="12" height="14" fill="#C6A15B" opacity="0.35"/><rect x="836" y="422" width="12" height="14" fill="#C6A15B" opacity="0.35"/><rect x="726" y="448" width="12" height="14" fill="#C6A15B" opacity="0.35"/><rect x="748" y="448" width="12" height="14" fill="#C6A15B" opacity="0.35"/><rect x="770" y="448" width="12" height="14" fill="#C6A15B" opacity="0.35"/><rect x="792" y="448" width="12" height="14" fill="#C6A15B" opacity="0.35"/><rect x="814" y="448" width="12" height="14" fill="#C6A15B" opacity="0.35"/><rect x="836" y="448" width="12" height="14" fill="#C6A15B" opacity="0.35"/><rect x="880" y="240" width="100" height="240" fill="#2B2E34" stroke="#C6A15B" stroke-width="1.5" opacity="1"/><rect x="886" y="248" width="12" height="14" fill="#C6A15B" opacity="0.35"/><rect x="908" y="248" width="12" height="14" fill="#C6A15B" opacity="0.35"/><rect x="930" y="248" width="12" height="14" fill="#C6A15B" opacity="0.35"/><rect x="952" y="248" width="12" height="14" fill="#C6A15B" opacity="0.35"/><rect x="886" y="274" width="12" height="14" fill="#C6A15B" opacity="0.35"/><rect x="908" y="274" width="12" height="14" fill="#C6A15B" opacity="0.35"/><rect x="930" y="274" width="12" height="14" fill="#C6A15B" opacity="0.35"/><rect x="952" y="274" width="12" height="14" fill="#C6A15B" opacity="0.35"/><rect x="886" y="300" width="12" height="14" fill="#C6A15B" opacity="0.35"/><rect x="908" y="300" width="12" height="14" fill="#C6A15B" opacity="0.35"/><rect x="930" y="300" width="12" height="14" fill="#C6A15B" opacity="0.35"/><rect x="952" y="300" width="12" height="14" fill="#C6A15B" opacity="0.35"/><rect x="886" y="326" width="12" height="14" fill="#C6A15B" opacity="0.35"/><rect x="908" y="326" width="12" height="14" fill="#C6A15B" opacity="0.35"/><rect x="930" y="326" width="12" height="14" fill="#C6A15B" opacity="0.35"/><rect x="952" y="326" width="12" height="14" fill="#C6A15B" opacity="0.35"/><rect x="886" y="352" width="12" height="14" fill="#C6A15B" opacity="0.35"/><rect x="908" y="352" width="12" height="14" fill="#C6A15B" opacity="0.35"/><rect x="930" y="352" width="12" height="14" fill="#C6A15B" opacity="0.35"/><rect x="952" y="352" width="12" height="14" fill="#C6A15B" opacity="0.35"/><rect x="886" y="378" width="12" height="14" fill="#C6A15B" opacity="0.35"/><rect x="908" y="378" width="12" height="14" fill="#C6A15B" opacity="0.35"/><rect x="930" y="378" width="12" height="14" fill="#C6A15B" opacity="0.35"/><rect x="952" y="378" width="12" height="14" fill="#C6A15B" opacity="0.35"/><rect x="886" y="404" width="12" height="14" fill="#C6A15B" opacity="0.35"/><rect x="908" y="404" width="12" height="14" fill="#C6A15B" opacity="0.35"/><rect x="930" y="404" width="12" height="14" fill="#C6A15B" opacity="0.35"/><rect x="952" y="404" width="12" height="14" fill="#C6A15B" opacity="0.35"/><rect x="886" y="430" width="12" height="14" fill="#C6A15B" opacity="0.35"/><rect x="908" y="430" width="12" height="14" fill="#C6A15B" opacity="0.35"/><rect x="930" y="430" width="12" height="14" fill="#C6A15B" opacity="0.35"/><rect x="952" y="430" width="12" height="14" fill="#C6A15B" opacity="0.35"/><rect x="886" y="456" width="12" height="14" fill="#C6A15B" opacity="0.35"/><rect x="908" y="456" width="12" height="14" fill="#C6A15B" opacity="0.35"/><rect x="930" y="456" width="12" height="14" fill="#C6A15B" opacity="0.35"/><rect x="952" y="456" width="12" height="14" fill="#C6A15B" opacity="0.35"/><rect x="1000" y="120" width="160" height="360" fill="#2B2E34" stroke="#E4C17E" stroke-width="1.5" opacity="1"/><rect x="1006" y="128" width="12" height="14" fill="#C6A15B" opacity="0.35"/><rect x="1028" y="128" width="12" height="14" fill="#C6A15B" opacity="0.35"/><rect x="1050" y="128" width="12" height="14" fill="#C6A15B" opacity="0.35"/><rect x="1072" y="128" width="12" height="14" fill="#C6A15B" opacity="0.35"/><rect x="1094" y="128" width="12" height="14" fill="#C6A15B" opacity="0.35"/><rect x="1116" y="128" width="12" height="14" fill="#C6A15B" opacity="0.35"/><rect x="1138" y="128" width="12" height="14" fill="#C6A15B" opacity="0.35"/><rect x="1006" y="154" width="12" height="14" fill="#C6A15B" opacity="0.35"/><rect x="1028" y="154" width="12" height="14" fill="#C6A15B" opacity="0.35"/><rect x="1050" y="154" width="12" height="14" fill="#C6A15B" opacity="0.35"/><rect x="1072" y="154" width="12" height="14" fill="#C6A15B" opacity="0.35"/><rect x="1094" y="154" width="12" height="14" fill="#C6A15B" opacity="0.35"/><rect x="1116" y="154" width="12" height="14" fill="#C6A15B" opacity="0.35"/><rect x="1138" y="154" width="12" height="14" fill="#C6A15B" opacity="0.35"/><rect x="1006" y="180" width="12" height="14" fill="#C6A15B" opacity="0.35"/><rect x="1028" y="180" width="12" height="14" fill="#C6A15B" opacity="0.35"/><rect x="1050" y="180" width="12" height="14" fill="#C6A15B" opacity="0.35"/><rect x="1072" y="180" width="12" height="14" fill="#C6A15B" opacity="0.35"/><rect x="1094" y="180" width="12" height="14" fill="#C6A15B" opacity="0.35"/><rect x="1116" y="180" width="12" height="14" fill="#C6A15B" opacity="0.35"/><rect x="1138" y="180" width="12" height="14" fill="#C6A15B" opacity="0.35"/><rect x="1006" y="206" width="12" height="14" fill="#C6A15B" opacity="0.35"/><rect x="1028" y="206" width="12" height="14" fill="#C6A15B" opacity="0.35"/><rect x="1050" y="206" width="12" height="14" fill="#C6A15B" opacity="0.35"/><rect x="1072" y="206" width="12" height="14" fill="#C6A15B" opacity="0.35"/><rect x="1094" y="206" width="12" height="14" fill="#C6A15B" opacity="0.35"/><rect x="1116" y="206" width="12" height="14" fill="#C6A15B" opacity="0.35"/><rect x="1138" y="206" width="12" height="14" fill="#C6A15B" opacity="0.35"/><rect x="1006" y="232" width="12" height="14" fill="#C6A15B" opacity="0.35"/><rect x="1028" y="232" width="12" height="14" fill="#C6A15B" opacity="0.35"/><rect x="1050" y="232" width="12" height="14" fill="#C6A15B" opacity="0.35"/><rect x="1072" y="232" width="12" height="14" fill="#C6A15B" opacity="0.35"/><rect x="1094" y="232" width="12" height="14" fill="#C6A15B" opacity="0.35"/><rect x="1116" y="232" width="12" height="14" fill="#C6A15B" opacity="0.35"/><rect x="1138" y="232" width="12" height="14" fill="#C6A15B" opacity="0.35"/><rect x="1006" y="258" width="12" height="14" fill="#C6A15B" opacity="0.35"/><rect x="1028" y="258" width="12" height="14" fill="#C6A15B" opacity="0.35"/><rect x="1050" y="258" width="12" height="14" fill="#C6A15B" opacity="0.35"/><rect x="1072" y="258" width="12" height="14" fill="#C6A15B" opacity="0.35"/><rect x="1094" y="258" width="12" height="14" fill="#C6A15B" opacity="0.35"/><rect x="1116" y="258" width="12" height="14" fill="#C6A15B" opacity="0.35"/><rect x="1138" y="258" width="12" height="14" fill="#C6A15B" opacity="0.35"/><rect x="1006" y="284" width="12" height="14" fill="#C6A15B" opacity="0.35"/><rect x="1028" y="284" width="12" height="14" fill="#C6A15B" opacity="0.35"/><rect x="1050" y="284" width="12" height="14" fill="#C6A15B" opacity="0.35"/><rect x="1072" y="284" width="12" height="14" fill="#C6A15B" opacity="0.35"/><rect x="1094" y="284" width="12" height="14" fill="#C6A15B" opacity="0.35"/><rect x="1116" y="284" width="12" height="14" fill="#C6A15B" opacity="0.35"/><rect x="1138" y="284" width="12" height="14" fill="#C6A15B" opacity="0.35"/><rect x="1006" y="310" width="12" height="14" fill="#C6A15B" opacity="0.35"/><rect x="1028" y="310" width="12" height="14" fill="#C6A15B" opacity="0.35"/><rect x="1050" y="310" width="12" height="14" fill="#C6A15B" opacity="0.35"/><rect x="1072" y="310" width="12" height="14" fill="#C6A15B" opacity="0.35"/><rect x="1094" y="310" width="12" height="14" fill="#C6A15B" opacity="0.35"/><rect x="1116" y="310" width="12" height="14" fill="#C6A15B" opacity="0.35"/><rect x="1138" y="310" width="12" height="14" fill="#C6A15B" opacity="0.35"/><rect x="1006" y="336" width="12" height="14" fill="#C6A15B" opacity="0.35"/><rect x="1028" y="336" width="12" height="14" fill="#C6A15B" opacity="0.35"/><rect x="1050" y="336" width="12" height="14" fill="#C6A15B" opacity="0.35"/><rect x="1072" y="336" width="12" height="14" fill="#C6A15B" opacity="0.35"/><rect x="1094" y="336" width="12" height="14" fill="#C6A15B" opacity="0.35"/><rect x="1116" y="336" width="12" height="14" fill="#C6A15B" opacity="0.35"/><rect x="1138" y="336" width="12" height="14" fill="#C6A15B" opacity="0.35"/><rect x="1006" y="362" width="12" height="14" fill="#C6A15B" opacity="0.35"/><rect x="1028" y="362" width="12" height="14" fill="#C6A15B" opacity="0.35"/><rect x="1050" y="362" width="12" height="14" fill="#C6A15B" opacity="0.35"/><rect x="1072" y="362" width="12" height="14" fill="#C6A15B" opacity="0.35"/><rect x="1094" y="362" width="12" height="14" fill="#C6A15B" opacity="0.35"/><rect x="1116" y="362" width="12" height="14" fill="#C6A15B" opacity="0.35"/><rect x="1138" y="362" width="12" height="14" fill="#C6A15B" opacity="0.35"/><rect x="1006" y="388" width="12" height="14" fill="#C6A15B" opacity="0.35"/><rect x="1028" y="388" width="12" height="14" fill="#C6A15B" opacity="0.35"/><rect x="1050" y="388" width="12" height="14" fill="#C6A15B" opacity="0.35"/><rect x="1072" y="388" width="12" height="14" fill="#C6A15B" opacity="0.35"/><rect x="1094" y="388" width="12" height="14" fill="#C6A15B" opacity="0.35"/><rect x="1116" y="388" width="12" height="14" fill="#C6A15B" opacity="0.35"/><rect x="1138" y="388" width="12" height="14" fill="#C6A15B" opacity="0.35"/><rect x="1006" y="414" width="12" height="14" fill="#C6A15B" opacity="0.35"/><rect x="1028" y="414" width="12" height="14" fill="#C6A15B" opacity="0.35"/><rect x="1050" y="414" width="12" height="14" fill="#C6A15B" opacity="0.35"/><rect x="1072" y="414" width="12" height="14" fill="#C6A15B" opacity="0.35"/><rect x="1094" y="414" width="12" height="14" fill="#C6A15B" opacity="0.35"/><rect x="1116" y="414" width="12" height="14" fill="#C6A15B" opacity="0.35"/><rect x="1138" y="414" width="12" height="14" fill="#C6A15B" opacity="0.35"/><rect x="1006" y="440" width="12" height="14" fill="#C6A15B" opacity="0.35"/><rect x="1028" y="440" width="12" height="14" fill="#C6A15B" opacity="0.35"/><rect x="1050" y="440" width="12" height="14" fill="#C6A15B" opacity="0.35"/><rect x="1072" y="440" width="12" height="14" fill="#C6A15B" opacity="0.35"/><rect x="1094" y="440" width="12" height="14" fill="#C6A15B" opacity="0.35"/><rect x="1116" y="440" width="12" height="14" fill="#C6A15B" opacity="0.35"/><rect x="1138" y="440" width="12" height="14" fill="#C6A15B" opacity="0.35"/><rect x="1180" y="270" width="120" height="210" fill="#2B2E34" stroke="#C6A15B" stroke-width="1.5" opacity="1"/><rect x="1186" y="278" width="12" height="14" fill="#C6A15B" opacity="0.35"/><rect x="1208" y="278" width="12" height="14" fill="#C6A15B" opacity="0.35"/><rect x="1230" y="278" width="12" height="14" fill="#C6A15B" opacity="0.35"/><rect x="1252" y="278" width="12" height="14" fill="#C6A15B" opacity="0.35"/><rect x="1274" y="278" width="12" height="14" fill="#C6A15B" opacity="0.35"/><rect x="1186" y="304" width="12" height="14" fill="#C6A15B" opacity="0.35"/><rect x="1208" y="304" width="12" height="14" fill="#C6A15B" opacity="0.35"/><rect x="1230" y="304" width="12" height="14" fill="#C6A15B" opacity="0.35"/><rect x="1252" y="304" width="12" height="14" fill="#C6A15B" opacity="0.35"/><rect x="1274" y="304" width="12" height="14" fill="#C6A15B" opacity="0.35"/><rect x="1186" y="330" width="12" height="14" fill="#C6A15B" opacity="0.35"/><rect x="1208" y="330" width="12" height="14" fill="#C6A15B" opacity="0.35"/><rect x="1230" y="330" width="12" height="14" fill="#C6A15B" opacity="0.35"/><rect x="1252" y="330" width="12" height="14" fill="#C6A15B" opacity="0.35"/><rect x="1274" y="330" width="12" height="14" fill="#C6A15B" opacity="0.35"/><rect x="1186" y="356" width="12" height="14" fill="#C6A15B" opacity="0.35"/><rect x="1208" y="356" width="12" height="14" fill="#C6A15B" opacity="0.35"/><rect x="1230" y="356" width="12" height="14" fill="#C6A15B" opacity="0.35"/><rect x="1252" y="356" width="12" height="14" fill="#C6A15B" opacity="0.35"/><rect x="1274" y="356" width="12" height="14" fill="#C6A15B" opacity="0.35"/><rect x="1186" y="382" width="12" height="14" fill="#C6A15B" opacity="0.35"/><rect x="1208" y="382" width="12" height="14" fill="#C6A15B" opacity="0.35"/><rect x="1230" y="382" width="12" height="14" fill="#C6A15B" opacity="0.35"/><rect x="1252" y="382" width="12" height="14" fill="#C6A15B" opacity="0.35"/><rect x="1274" y="382" width="12" height="14" fill="#C6A15B" opacity="0.35"/><rect x="1186" y="408" width="12" height="14" fill="#C6A15B" opacity="0.35"/><rect x="1208" y="408" width="12" height="14" fill="#C6A15B" opacity="0.35"/><rect x="1230" y="408" width="12" height="14" fill="#C6A15B" opacity="0.35"/><rect x="1252" y="408" width="12" height="14" fill="#C6A15B" opacity="0.35"/><rect x="1274" y="408" width="12" height="14" fill="#C6A15B" opacity="0.35"/><rect x="1186" y="434" width="12" height="14" fill="#C6A15B" opacity="0.35"/><rect x="1208" y="434" width="12" height="14" fill="#C6A15B" opacity="0.35"/><rect x="1230" y="434" width="12" height="14" fill="#C6A15B" opacity="0.35"/><rect x="1252" y="434" width="12" height="14" fill="#C6A15B" opacity="0.35"/><rect x="1274" y="434" width="12" height="14" fill="#C6A15B" opacity="0.35"/><rect x="1186" y="460" width="12" height="14" fill="#C6A15B" opacity="0.35"/><rect x="1208" y="460" width="12" height="14" fill="#C6A15B" opacity="0.35"/><rect x="1230" y="460" width="12" height="14" fill="#C6A15B" opacity="0.35"/><rect x="1252" y="460" width="12" height="14" fill="#C6A15B" opacity="0.35"/><rect x="1274" y="460" width="12" height="14" fill="#C6A15B" opacity="0.35"/><rect x="1320" y="310" width="90" height="170" fill="#2B2E34" stroke="#C6A15B" stroke-width="1.5" opacity="1"/><rect x="1326" y="318" width="12" height="14" fill="#C6A15B" opacity="0.35"/><rect x="1348" y="318" width="12" height="14" fill="#C6A15B" opacity="0.35"/><rect x="1370" y="318" width="12" height="14" fill="#C6A15B" opacity="0.35"/><rect x="1392" y="318" width="12" height="14" fill="#C6A15B" opacity="0.35"/><rect x="1326" y="344" width="12" height="14" fill="#C6A15B" opacity="0.35"/><rect x="1348" y="344" width="12" height="14" fill="#C6A15B" opacity="0.35"/><rect x="1370" y="344" width="12" height="14" fill="#C6A15B" opacity="0.35"/><rect x="1392" y="344" width="12" height="14" fill="#C6A15B" opacity="0.35"/><rect x="1326" y="370" width="12" height="14" fill="#C6A15B" opacity="0.35"/><rect x="1348" y="370" width="12" height="14" fill="#C6A15B" opacity="0.35"/><rect x="1370" y="370" width="12" height="14" fill="#C6A15B" opacity="0.35"/><rect x="1392" y="370" width="12" height="14" fill="#C6A15B" opacity="0.35"/><rect x="1326" y="396" width="12" height="14" fill="#C6A15B" opacity="0.35"/><rect x="1348" y="396" width="12" height="14" fill="#C6A15B" opacity="0.35"/><rect x="1370" y="396" width="12" height="14" fill="#C6A15B" opacity="0.35"/><rect x="1392" y="396" width="12" height="14" fill="#C6A15B" opacity="0.35"/><rect x="1326" y="422" width="12" height="14" fill="#C6A15B" opacity="0.35"/><rect x="1348" y="422" width="12" height="14" fill="#C6A15B" opacity="0.35"/><rect x="1370" y="422" width="12" height="14" fill="#C6A15B" opacity="0.35"/><rect x="1392" y="422" width="12" height="14" fill="#C6A15B" opacity="0.35"/><rect x="1326" y="448" width="12" height="14" fill="#C6A15B" opacity="0.35"/><rect x="1348" y="448" width="12" height="14" fill="#C6A15B" opacity="0.35"/><rect x="1370" y="448" width="12" height="14" fill="#C6A15B" opacity="0.35"/><rect x="1392" y="448" width="12" height="14" fill="#C6A15B" opacity="0.35"/>
<rect x="0" y="480" width="1440" height="20" fill="#15161A"/>
</svg>